<svg width="22" height="23" viewBox="0 0 22 23" fill="none" xmlns="http://www.w3.org/2000/svg">
    <path d="M10.9964 22.1136C17.0362 22.1136 21.9283 17.2216 21.9283 11.1818C21.9283 5.14205 17.0362 0.25 10.9964 0.25C4.95668 0.25 0.0646307 5.14205 0.0646307 11.1818C0.0646307 17.2216 4.95668 22.1136 10.9964 22.1136ZM10.9964 20.7955C5.67827 20.7955 1.38281 16.4886 1.38281 11.1818C1.38281 5.86364 5.67827 1.56818 10.9964 1.56818C16.3146 1.56818 20.6101 5.86364 20.6101 11.1818C20.6101 16.4886 16.3146 20.7955 10.9964 20.7955ZM11.7578 16.2727L16.8487 11.1818L11.7578 6.09091L10.8828 6.96591L14.4851 10.5568H5.15554V11.8068H14.4851L10.8828 15.4091L11.7578 16.2727Z" fill="current"/>
</svg>
