<svg width="22" height="23" viewBox="0 0 22 23" fill="none" xmlns="http://www.w3.org/2000/svg">
    <path d="M10.9964 22.1136C17.0362 22.1136 21.9283 17.2216 21.9283 11.1818C21.9283 5.14205 17.0362 0.25 10.9964 0.25C4.95668 0.25 0.0646307 5.14205 0.0646307 11.1818C0.0646307 17.2216 4.95668 22.1136 10.9964 22.1136ZM10.9964 20.7955C5.67827 20.7955 1.38281 16.4886 1.38281 11.1818C1.38281 5.86364 5.67827 1.56818 10.9964 1.56818C16.3146 1.56818 20.6101 5.86364 20.6101 11.1818C20.6101 16.4886 16.3146 20.7955 10.9964 20.7955ZM7.95099 15.1023L10.9964 12.0682L14.0419 15.1023L14.9283 14.2159L11.8828 11.1818L14.9283 8.14773L14.0419 7.26136L10.9964 10.2955L7.95099 7.26136L7.06463 8.14773L10.1101 11.1818L7.06463 14.2159L7.95099 15.1023Z" fill="current"/>
</svg>
